<svg id="icon_1" xmlns="http://www.w3.org/2000/svg" width="38.5" height="38.5" viewBox="0 0 38.5 38.5">
  <g id="Group_7550" data-name="Group 7550">
    <g id="Group_7549" data-name="Group 7549">
      <path id="Path_5882" data-name="Path 5882" d="M108.416,214.208a.875.875,0,1,0-1.75,0c0,2.3,2.534,5.453,2.823,5.805a.875.875,0,1,0,1.353-1.111C109.9,217.759,108.416,215.474,108.416,214.208Z" transform="translate(-97.916 -195.833)" fill="#2d2d2d"/>
      <path id="Path_5883" data-name="Path 5883" d="M312.836,213.333a.875.875,0,0,0-.875.875c0,1.262-1.489,3.55-2.427,4.7a.875.875,0,0,0,1.354,1.11c.289-.353,2.823-3.508,2.823-5.805A.875.875,0,0,0,312.836,213.333Z" transform="translate(-283.961 -195.833)" fill="#2d2d2d"/>
      <path id="Path_5884" data-name="Path 5884" d="M224.875,213.333a.875.875,0,0,0-.875.875v5.25a.875.875,0,0,0,1.75,0v-5.25A.875.875,0,0,0,224.875,213.333Z" transform="translate(-205.625 -195.833)" fill="#2d2d2d"/>
      <path id="Path_5885" data-name="Path 5885" d="M28.875,3.5a9.165,9.165,0,0,0-1.66.177,10.466,10.466,0,0,0-15.93,0A9.173,9.173,0,0,0,9.625,3.5,9.621,9.621,0,0,0,5.271,21.7L5.253,34.926A3.571,3.571,0,0,0,8.824,38.5H29.68a3.574,3.574,0,0,0,3.57-3.57V21.69A9.62,9.62,0,0,0,28.875,3.5ZM31.5,34.93a1.823,1.823,0,0,1-1.82,1.82H8.823A1.82,1.82,0,0,1,7,34.928l0-3.428H31.5Zm.542-14.6a.785.785,0,0,0-.131.068.876.876,0,0,0-.4.614.846.846,0,0,0-.009.147V29.75H7.01l.011-8.582a.9.9,0,0,0-.009-.144.877.877,0,0,0-.138-.362.867.867,0,0,0-.26-.254.916.916,0,0,0-.138-.071A7.871,7.871,0,0,1,9.625,5.25c.17,0,.349.021.525.034A10.424,10.424,0,0,0,8.75,10.5a.875.875,0,0,0,1.75,0,8.75,8.75,0,1,1,17.5,0,.875.875,0,1,0,1.75,0,10.424,10.424,0,0,0-1.4-5.216c.176-.014.355-.034.525-.034a7.87,7.87,0,0,1,3.167,15.078Z" fill="#2d2d2d"/>
    </g>
  </g>
</svg>
