<svg xmlns="http://www.w3.org/2000/svg" width="24" height="24" viewBox="0 0 24 24">
  <g id="icon_14" transform="translate(-171 -5253.152)">
    <rect id="Rectangle_2771" data-name="Rectangle 2771" width="24" height="24" rx="2" transform="translate(171 5253.152)" fill="#fff"/>
    <g id="XMLID_834_" transform="translate(180 5259.152)">
      <path id="XMLID_835_" d="M76.885,6h1.234v5.08a.182.182,0,0,0,.182.182h2.092a.182.182,0,0,0,.182-.182V6.019h1.419a.182.182,0,0,0,.18-.161l.215-1.87a.182.182,0,0,0-.18-.2H80.574V2.614c0-.353.19-.533.566-.533h1.068a.182.182,0,0,0,.182-.182V.183A.182.182,0,0,0,82.208,0h-1.54a2.821,2.821,0,0,0-1.845.7,1.935,1.935,0,0,0-.643,1.72V3.786h-1.3a.182.182,0,0,0-.182.182V5.814A.182.182,0,0,0,76.885,6Z" transform="translate(-76.703)" fill="#075e9f"/>
    </g>
  </g>
</svg>
