<svg xmlns="http://www.w3.org/2000/svg" width="24" height="24" viewBox="0 0 24 24">
  <g id="icon_12" transform="translate(-138 -5253.152)">
    <rect id="Rectangle_2770" data-name="Rectangle 2770" width="24" height="24" rx="2" transform="translate(138 5253.152)" fill="#fff"/>
    <g id="XMLID_504_" transform="translate(144 5259.152)">
      <path id="XMLID_505_" d="M1.544.012h8.94a1.548,1.548,0,0,1,1.544,1.544V10.5a1.548,1.548,0,0,1-1.544,1.543H1.544A1.548,1.548,0,0,1,0,10.5V1.556A1.549,1.549,0,0,1,1.544.012ZM8.762,1.348a.543.543,0,0,0-.541.542v1.3a.543.543,0,0,0,.541.542h1.359a.543.543,0,0,0,.542-.542V1.89a.544.544,0,0,0-.542-.542H8.762ZM10.668,5.1H9.61a3.517,3.517,0,0,1,.155,1.033A3.683,3.683,0,0,1,6.025,9.753,3.683,3.683,0,0,1,2.287,6.131,3.533,3.533,0,0,1,2.441,5.1h-1.1v5.081a.478.478,0,0,0,.478.477h8.376a.478.478,0,0,0,.478-.477ZM6.026,3.659A2.379,2.379,0,0,0,3.61,6,2.379,2.379,0,0,0,6.026,8.341,2.38,2.38,0,0,0,8.442,6,2.379,2.379,0,0,0,6.026,3.659Z" transform="translate(0 -0.012)" fill="#075e9f"/>
    </g>
  </g>
</svg>
