<svg xmlns="http://www.w3.org/2000/svg" width="24" height="24" viewBox="0 0 24 24">
  <g id="icon_13" transform="translate(-204 -5253.152)">
    <rect id="Rectangle_2772" data-name="Rectangle 2772" width="24" height="24" rx="2" transform="translate(204 5253.152)" fill="#fff"/>
    <g id="XMLID_801_" transform="translate(210 5259.152)">
      <path id="XMLID_802_" d="M7.427,99.73H5.113a.186.186,0,0,0-.186.186v7.433a.186.186,0,0,0,.186.186H7.427a.186.186,0,0,0,.186-.186V99.916A.186.186,0,0,0,7.427,99.73Z" transform="translate(-4.743 -96.035)" fill="#075e9f"/>
      <path id="XMLID_803_" d="M1.527.341A1.525,1.525,0,1,0,3.052,1.866,1.528,1.528,0,0,0,1.527.341Z" transform="translate(0 -0.341)" fill="#075e9f"/>
      <path id="XMLID_804_" d="M110.8,94.761a2.717,2.717,0,0,0-2.033.853v-.483a.186.186,0,0,0-.186-.186h-2.216a.186.186,0,0,0-.186.186v7.433a.186.186,0,0,0,.186.186h2.309a.186.186,0,0,0,.186-.186V98.887c0-1.239.337-1.722,1.2-1.722.941,0,1.016.774,1.016,1.786v3.614a.186.186,0,0,0,.186.186h2.309a.186.186,0,0,0,.186-.186V98.487C113.754,96.645,113.4,94.761,110.8,94.761Z" transform="translate(-102.228 -91.251)" fill="#075e9f"/>
    </g>
  </g>
</svg>
