<svg xmlns="http://www.w3.org/2000/svg" width="34" height="36.88" viewBox="0 0 34 36.88">
  <path id="icon_4" d="M34.062,16.283a.92.92,0,0,1,0-1.3L44.175,4.87l-.76.085a.92.92,0,1,1-.2-1.828l3.355-.374a.945.945,0,0,1,.528.083.959.959,0,0,1,.536.866h0c0,.021-.018.042-.021.064l-.392,3.369a.92.92,0,0,1-1.828-.2l.085-.761L35.363,16.283a.92.92,0,0,1-1.3,0ZM19.267,6.216C19.415,2.275,22.522.276,25.5.007c.142-.013.864-.007,1.052.014a7.707,7.707,0,0,1,2.672.791c.161.082.592.333.645.375a6.067,6.067,0,0,1,2.774,5.029c.128,3.413-1.144,6.169-3.49,7.563a6.255,6.255,0,0,1-6.394,0C20.411,12.385,19.14,9.629,19.267,6.216ZM23.7,12.2a4.417,4.417,0,0,0,4.514,0C29.959,11.158,30.9,9,30.8,6.285A4.376,4.376,0,0,0,29.718,3.46a6.472,6.472,0,0,1-5.5,3.458.92.92,0,1,1-.135-1.835A4.6,4.6,0,0,0,28.2,2.352a5.925,5.925,0,0,0-2.248-.531c-2.339.094-4.737,1.507-4.848,4.464C21,9,21.948,11.158,23.7,12.2Zm25.959,6.562V36a.889.889,0,0,1-.924.879H33.311a.912.912,0,0,1-.95-.879V28.433a.958.958,0,0,1,.95-.934h6a.966.966,0,0,1,.958.934v6.609h2.852V24.279H38.985v.774a.92.92,0,1,1-1.84,0V23.4a.915.915,0,0,1,.875-.957h6a.97.97,0,0,1,.941.957V35.041h2.852V19.679H43.676v.289a.92.92,0,1,1-1.84,0V18.759a.9.9,0,0,1,.892-.92h6A.923.923,0,0,1,49.655,18.759ZM38.433,29.338H34.2v5.7h4.231Zm-4.9-4.94a.92.92,0,0,0,.738-1.071l-.15-.823c-.757-4.089-4.615-5.953-8.119-5.953h-.047c-.008,0-.014.006-.021.006-3.5.02-7.353,1.864-8.11,5.95L15.671,34.214a.939.939,0,0,0,.2.764.928.928,0,0,0,.707.34h12.18a.92.92,0,0,0,0-1.84H17.68l1.957-10.624c.568-3.066,3.6-4.443,6.351-4.446s5.762,1.382,6.328,4.439l.15.815A.92.92,0,0,0,33.537,24.4Zm-6.595-1.684a.92.92,0,1,0,0,1.84h1.794a.92.92,0,1,0,0-1.84Z" transform="translate(-15.655 -0.001)" fill="#2d2d2d"/>
</svg>
