<svg xmlns="http://www.w3.org/2000/svg" width="42.655" height="39.345" viewBox="0 0 42.655 39.345">
  <g id="icon_6" transform="translate(0 -16.264)">
    <g id="Group_7578" data-name="Group 7578" transform="translate(0 16.264)">
      <path id="Path_5897" data-name="Path 5897" d="M41.841,23.428v-.016H31.617l.814-1.221a.813.813,0,0,0,.138-.456V17.07a.787.787,0,0,0-.814-.806H10.924a.787.787,0,0,0-.814.806v4.656a.813.813,0,0,0,.138.456l.814,1.221H.814a.814.814,0,1,0,0,1.628h11.4l3.492,5.12a.814.814,0,0,0,.537.342h.138a.814.814,0,0,0,.488-.163l.961-.708L19,32.317l-4.013,14.6a.814.814,0,0,0,.13.7L20.7,55.273a.814.814,0,0,0,1.319,0L27.6,47.621a.814.814,0,0,0,.13-.7L23.721,32.333l1.14-2.719,1,.741a.814.814,0,0,0,.48.163h.138a.814.814,0,0,0,.537-.342l3.492-5.12H41.841a.814.814,0,0,0,0-1.628ZM29.582,17.884l-2.955,2.532H16.045L13.13,17.884Zm-8.254,7.058-3.37-2.89h6.748Zm.684,2.589,1.506,1.075-1.2,2.841H20.383L19.154,28.63,21.352,27Zm-4.371.2-1.1.814-4.819-7.066V18.837l8.311,7.123Zm8.385,19.252-4.7,6.431-4.7-6.439L20.44,33.09h1.775Zm4.884-25.5L26.09,28.548l-1.148-.814-2.336-1.726,8.36-7.172Z" transform="translate(0 -16.264)" fill="#2d2d2d"/>
    </g>
  </g>
</svg>
