<svg xmlns="http://www.w3.org/2000/svg" width="38.5" height="38.5" viewBox="0 0 38.5 38.5">
  <g id="icon_2" transform="translate(0.25 0.25)">
    <g id="Group_7573" data-name="Group 7573" transform="translate(25.607 32.791)">
      <g id="Group_7572" data-name="Group 7572">
        <rect id="Rectangle_2737" data-name="Rectangle 2737" width="1.77" height="1.77" fill="#2d2d2d" stroke="#fff" stroke-width="0.5"/>
      </g>
    </g>
    <g id="Group_7575" data-name="Group 7575" transform="translate(6.774 9.462)">
      <g id="Group_7574" data-name="Group 7574">
        <path id="Path_5895" data-name="Path 5895" d="M101.7,132.434a13.239,13.239,0,0,0-7.253,8.478l2.587.6a10.608,10.608,0,0,1,5.756-6.654Z" transform="translate(-94.442 -132.434)" fill="#2d2d2d" stroke="#fff" stroke-width="0.5"/>
      </g>
    </g>
    <g id="Group_7577" data-name="Group 7577">
      <g id="Group_7576" data-name="Group 7576">
        <path id="Path_5896" data-name="Path 5896" d="M36.079,19.565A17.135,17.135,0,0,0,20.6,3.862a2.263,2.263,0,1,0-3.2,0,17.135,17.135,0,0,0-15.478,15.7H0v2.327H3.878V23.52l5.3,2.643L22.3,28.2l.045.006a2.854,2.854,0,0,1,.888.3,1.237,1.237,0,0,1,.724,1.182v.525H22.575V38h13.17V30.214H33.968V24.129L31.7,21.892H38V19.565ZM22.636,25.893,9.9,23.92,6.2,22.08v-.188H28.379L31.641,25.1v5.11H26.283v-.525A3.937,3.937,0,0,0,22.636,25.893Zm10.783,6.69v3.09H24.9v-3.09ZM29.333,19.565H4.256a14.807,14.807,0,0,1,29.489,0H29.333Z" fill="#2d2d2d" stroke="#fff" stroke-width="0.5"/>
      </g>
    </g>
  </g>
</svg>
