<svg xmlns="http://www.w3.org/2000/svg" width="34" height="40.124" viewBox="0 0 34 40.124">
  <path id="icon_10" d="M41.019,13.492a6.116,6.116,0,0,0,6.252,0c2.294-1.363,3.537-4.058,3.413-7.395C50.532,2.06,47.2.107,44.176,0h-.063c-3.028.106-6.356,2.06-6.507,6.1C37.481,9.434,38.725,12.129,41.019,13.492ZM44.145,1.8a5.051,5.051,0,0,1,3.98,1.981,25.3,25.3,0,0,1-8.7,2.041C39.7,3.164,41.95,1.888,44.145,1.8Zm4.663,3.646a5.057,5.057,0,0,1,.077.719c.1,2.658-.824,4.765-2.534,5.781a4.319,4.319,0,0,1-4.414,0,5.549,5.549,0,0,1-2.48-4.324A27.274,27.274,0,0,0,48.808,5.445ZM63.529,28.872a.9.9,0,0,1,.411-1.2l1.419-.7a.9.9,0,0,1,.793,1.615l-1.419.7a.9.9,0,0,1-1.2-.411ZM50.3,22.358l.518,2.8a.9.9,0,1,0,1.769-.327l-.518-2.806c-.743-4.009-4.523-5.817-7.942-5.817h-.014c-3.417,0-7.192,1.811-7.934,5.817l-2.118,11.46a.907.907,0,0,0,.885,1.072H45.849a.9.9,0,0,0,0-1.805H36.023l1.921-10.4a5.038,5.038,0,0,1,3.13-3.734l1.771,4.424h-.431a.912.912,0,0,0-.906.908v5.036a.9.9,0,0,0,.906.892h3.437a.871.871,0,0,0,.873-.892V23.956a.885.885,0,0,0-.873-.908h-.407l1.764-4.406A5.027,5.027,0,0,1,50.3,22.358Zm-5.371,5.727H43.307V24.847h1.619Zm-.781-6.623L42.81,18.124a7.913,7.913,0,0,1,2.667.008Zm23.9,10.719a.9.9,0,0,1-.9.9H65.577a.9.9,0,1,1,0-1.8h1.566A.9.9,0,0,1,68.042,32.181Zm-1.48,4.8a.9.9,0,0,1-1.2.411l-1.419-.7a.9.9,0,1,1,.793-1.615l1.419.7A.9.9,0,0,1,66.563,36.979Zm-5.3-10.958a.9.9,0,0,0-.828-.092l-6.264,2.335H49.821a.91.91,0,0,0-.938.873V39.224a.9.9,0,1,0,1.8,0V36.09h3.492l6.262,2.339a.9.9,0,0,0,.83-.1.887.887,0,0,0,.389-.73V26.759A.9.9,0,0,0,61.267,26.021Zm-7.8,8.27H50.683V30.064h2.788Zm6.386,2.019L55.27,34.6V29.763l4.587-1.711Z" transform="translate(-34.042 0)" fill="#2d2d2d"/>
</svg>
