<svg xmlns="http://www.w3.org/2000/svg" width="34" height="39.267" viewBox="0 0 34 39.267">
  <path id="icon_5" d="M44.043,19.957l-3.071,6.169a.926.926,0,0,1-.847.5h0a.93.93,0,0,1-.847-.5l-.009,0L36.2,19.963a5.13,5.13,0,0,0-2.624,3.6L31.543,34.516h5.895a.961.961,0,0,1,0,1.921l-7.031,0s0-.006-.005-.006,0-.012,0-.012H28.663a.95.95,0,0,1,0-1.9h.947l2.1-11.3a7.046,7.046,0,0,1,3.646-4.95l-.315-.634a.95.95,0,1,1,1.7-.846l3.382,6.806L43.5,16.784a.95.95,0,1,1,1.7.846l-.315.635a7.062,7.062,0,0,1,3.646,4.962l.45,2.432A.95.95,0,1,1,47.117,26l-.45-2.432A5.161,5.161,0,0,0,44.043,19.957Zm-8.62-6.86a8.782,8.782,0,0,1-2.21-6.7,6.508,6.508,0,0,1,5.3-6.23A12.645,12.645,0,0,1,40.182,0C40.5,0,41.576.127,41.6.136a6.524,6.524,0,0,1,5.424,6.257,8.783,8.783,0,0,1-2.21,6.7,6.48,6.48,0,0,1-9.4,0Zm9.6-4.72a6.4,6.4,0,0,1-1.146.105,6.506,6.506,0,0,1-4.246-1.59c-.125.108-.252.212-.385.311a6.482,6.482,0,0,1-3.55,1.27c-.1,0-.413,0-.466,0a6.132,6.132,0,0,0,1.559,3.3,4.58,4.58,0,0,0,6.658,0A6.177,6.177,0,0,0,45.025,8.377Zm-2.9-6.111a8.543,8.543,0,0,1-1.245,3.2,4.583,4.583,0,0,0,4.242.942A4.507,4.507,0,0,0,42.128,2.266ZM35.111,6.572a4.575,4.575,0,0,0,3.005-.9,5.871,5.871,0,0,0,2.155-3.815l-.15-.009c-2.254.091-4.561,1.367-4.954,4.017C35.139,6.06,35.112,6.536,35.111,6.572Zm5.405,10.365-.791.019a.941.941,0,1,0,0,1.881h0l.791.019a.96.96,0,0,0,0-1.92Zm21.2,21.38a.95.95,0,0,1-.95.95H42.18a.95.95,0,0,1,0-1.9h1.8a7.1,7.1,0,0,1-1.941-4.935.956.956,0,0,1,.95-.957H50.7V29.17a3.8,3.8,0,0,1,3.626-3.787l.007-3.6a.947.947,0,1,1,1.894,0l-.008,3.6a3.781,3.781,0,0,1,3.6,3.787v8.2h.941A.95.95,0,0,1,61.713,38.317ZM52.6,31.475h1.05a.956.956,0,0,1,.95.957,7.1,7.1,0,0,1-1.941,4.935h5.262v-8.2a1.853,1.853,0,0,0-1.858-1.876H54.506A1.894,1.894,0,0,0,52.6,29.17Zm-4.285,5.891h0a4.555,4.555,0,0,0,4.3-3.991h-8.6A4.555,4.555,0,0,0,48.315,37.366Z" transform="translate(-27.713 0)" fill="#2d2d2d"/>
</svg>
