<svg xmlns="http://www.w3.org/2000/svg" width="51.617" height="35.563" viewBox="0 0 51.617 35.563">
  <g id="icon_3" transform="translate(0 -72)">
    <g id="Group_7584" data-name="Group 7584" transform="translate(0 72)">
      <g id="Group_7583" data-name="Group 7583" transform="translate(0 0)">
        <path id="Path_5923" data-name="Path 5923" d="M45.429,95.188a6.156,6.156,0,0,0-1.993.331l-.852-1.7a8.067,8.067,0,0,1,6.076.149.836.836,0,0,0,.669-1.533,9.733,9.733,0,0,0-7.5-.118l-3.1-6.2a2.622,2.622,0,0,0,.451.04H40.97a.836.836,0,0,0,.836-.836V81.755a.836.836,0,0,0-.836-.836H39.186a2.622,2.622,0,0,0-2.334,1.433l-.884-1.768a2.606,2.606,0,0,0-2.343-1.448H32.051a.836.836,0,1,0,0,1.672h1.573a.943.943,0,0,1,.848.524l2.165,4.331-.407.2a2.605,2.605,0,0,0-1.448,2.343v8.764H27.592a2.734,2.734,0,0,1-2.731-2.731V90.618h.056a2.62,2.62,0,1,0,0-5.24H17.782a2.611,2.611,0,0,0-1.839.757V73.728A1.73,1.73,0,0,0,14.214,72H1.728A1.73,1.73,0,0,0,0,73.728V86.214a1.73,1.73,0,0,0,1.728,1.728H3.6a2.175,2.175,0,0,0,2.123,2.676h4.5A11.177,11.177,0,0,0,8.77,91.723a10.364,10.364,0,0,0-3.151,4.95,2.321,2.321,0,0,0,.438,1.988,2.289,2.289,0,0,0,1.8.872h.445a6.187,6.187,0,1,0,12.036,2.68H36.511a.836.836,0,0,0,.836-.836,8.047,8.047,0,0,1,3.742-6.811l.852,1.7a6.184,6.184,0,1,0,3.488-1.08ZM17.782,87.05h7.135a.948.948,0,1,1,0,1.9H17.782a.948.948,0,1,1,0-1.9ZM1.672,73.728a.056.056,0,0,1,.056-.056H14.214a.056.056,0,0,1,.056.056v1.839H1.672ZM1.728,86.27a.056.056,0,0,1-.056-.056V77.24h12.6v8.974a.056.056,0,0,1-.056.056Zm4,2.676a.511.511,0,0,1-.509-.5.506.506,0,0,1,.391-.5l9.554,0c0,.018,0,.035,0,.053a2.606,2.606,0,0,0,.178.948Zm2.136,8.916h0a.62.62,0,0,1-.494-.238.658.658,0,0,1-.122-.564A9.218,9.218,0,0,1,16,90.618c3.825,0,5.251,3.656,5.251,5.96,0,.625-.345,1.258-1,1.26Zm7.3,3.515a.948.948,0,1,1-.948-.948A.949.949,0,0,1,15.162,101.376Zm-.948,4.515A4.512,4.512,0,0,1,10.1,99.529l2.266,0a2.62,2.62,0,1,0,3.7-.007l2.267,0a4.512,4.512,0,0,1-4.112,6.378ZM35.87,99.426a9.765,9.765,0,0,0-.16,1.114H20.344a6.2,6.2,0,0,0-.231-1.03h.134a2.753,2.753,0,0,0,2.674-2.932,8.485,8.485,0,0,0-1.652-5.03,6.989,6.989,0,0,0-.844-.93h2.764v3.623a4.409,4.409,0,0,0,4.4,4.4h8.027a.831.831,0,0,0,.495-.163A9.64,9.64,0,0,0,35.87,99.426Zm3.317-16.835h.948v1.9h-.948a.948.948,0,1,1,0-1.9ZM36.455,97.553V88.208a.943.943,0,0,1,.524-.848l.407-.2,2.953,5.906A9.794,9.794,0,0,0,36.455,97.553Zm8.974,8.337a4.515,4.515,0,1,1,4.515-4.515A4.52,4.52,0,0,1,45.429,105.891Z" transform="translate(0 -72)" fill="#2d2d2d"/>
        <path id="Path_5924" data-name="Path 5924" d="M386.62,312a2.62,2.62,0,1,0,2.62,2.62A2.623,2.623,0,0,0,386.62,312Zm0,3.567a.948.948,0,1,1,.948-.948A.949.949,0,0,1,386.62,315.567Z" transform="translate(-341.19 -285.244)" fill="#2d2d2d"/>
      </g>
    </g>
  </g>
</svg>
