<svg xmlns="http://www.w3.org/2000/svg" width="32.185" height="43.78" viewBox="0 0 32.185 43.78">
  <path id="icon_7" d="M65.843,14.967a6.785,6.785,0,0,0,6.935,0c2.544-1.511,3.924-4.5,3.785-8.2C76.4,2.285,72.7.118,69.345,0h-.07c-3.359.118-7.051,2.285-7.218,6.763C61.919,10.466,63.3,13.456,65.843,14.967ZM69.31,1.975c2.506.1,5.075,1.631,5.253,4.724h-.736a5.912,5.912,0,0,0-4.513-2h0a5.922,5.922,0,0,0-4.52,2h-.737C64.235,3.606,66.8,2.076,69.31,1.975Zm-4.038,6.72a.988.988,0,0,0,.8-.4,4.028,4.028,0,0,1,6.466,0,.99.99,0,0,0,.8.4h1.128a6.006,6.006,0,0,1-2.717,4.546,4.79,4.79,0,0,1-4.9-.005,6,6,0,0,1-2.718-4.541ZM90.29,32.615A11.177,11.177,0,0,1,79.126,43.78a1,1,0,1,1,0-2,9.18,9.18,0,0,0,9.169-9.169,1,1,0,0,1,2,0Zm-4.134-.2a7.253,7.253,0,0,0-.124-1.339c0-.017-.006-.034-.01-.051a7.234,7.234,0,1,0,.134,1.391Zm-2.039.218a5.19,5.19,0,0,1-4.232,4.921V33.387A16.841,16.841,0,0,0,84.117,32.633Zm-5.191-5.452a5.244,5.244,0,0,1,4.922,3.452,15.822,15.822,0,0,1-9.844,0A5.244,5.244,0,0,1,78.926,27.181ZM77.89,37.554a5.294,5.294,0,0,1-4.233-4.922,16.845,16.845,0,0,0,4.233.754ZM62.436,24.81,60.3,36.333h8.424a1,1,0,0,1,0,2H59.1a1.01,1.01,0,0,1-.981-1.194l2.351-12.7a7.775,7.775,0,0,1,6.081-6.1A11.134,11.134,0,0,1,72,18.319a8.625,8.625,0,0,1,4.6,2.777,1,1,0,0,1-1.536,1.274c-1.68-2.026-4.969-2.89-8-2.1a7.2,7.2,0,0,0-2.484,1.153l5.146,5.147a1,1,0,0,1-1.411,1.411L63.2,22.869A5.357,5.357,0,0,0,62.436,24.81Z" transform="translate(-58.106)" fill="#2d2d2d"/>
</svg>
