<svg xmlns="http://www.w3.org/2000/svg" width="47.795" height="40.089" viewBox="0 0 47.795 40.089">
  <g id="icon_8" transform="translate(0 -0.001)">
    <path id="Path_5898" data-name="Path 5898" d="M45.366,196.757H33.185a1.387,1.387,0,0,0-1.378-1.62H1.405A1.409,1.409,0,0,0,.2,197.27l1.321,2.213a3.122,3.122,0,0,1,.439,1.6v.375a5.018,5.018,0,0,0,5,5.024H26.251a5.013,5.013,0,0,0,4.992-4.861H45.364a2.43,2.43,0,0,0,0-4.861Zm-19.113,8.1H6.96a3.333,3.333,0,0,1-2.163-.81h8.974a.81.81,0,1,0,0-1.62H3.738a3.361,3.361,0,0,1-.142-.81h7.165a.81.81,0,1,0,0-1.62H3.446a4.743,4.743,0,0,0-.534-1.344l-1.132-1.9H31.433l-1.132,1.9a4.643,4.643,0,0,0-.263.519c-.046.105-.083.215-.121.323-.023.066-.049.13-.069.2a4.464,4.464,0,0,0-.109.441c-.007.032-.014.062-.019.094a4.488,4.488,0,0,0-.063.49c0,.011,0,.022,0,.033l-.061.866h.024A3.388,3.388,0,0,1,26.253,204.858ZM45.366,200H31.454l.009-.027a2.9,2.9,0,0,1,.224-.475l0-.01.66-1.107H45.365a.81.81,0,1,1,0,1.619Zm0,0" transform="translate(0 -176.92)" fill="#2d2d2d"/>
    <path id="Path_5899" data-name="Path 5899" d="M54.386,338.12H50.413c1.413-1.076,2.208-1.855,2.336-2.813.137-1.041-.512-1.879-1.589-3.267-.21-.269-.439-.564-.684-.89l-.489-.647-.646.488c-1.477,1.115-2.3,1.907-2.431,2.887-.137,1.041.512,1.879,1.589,3.267.21.27.439.564.684.89l.063.084H40.895c1.414-1.076,2.208-1.855,2.336-2.813.138-1.041-.512-1.879-1.588-3.267-.21-.27-.439-.564-.685-.89l-.488-.647-.647.489c-1.477,1.115-2.3,1.907-2.431,2.887-.138,1.041.512,1.879,1.588,3.266.21.27.439.565.684.89l.063.084H31.173c1.413-1.076,2.208-1.855,2.336-2.813.137-1.041-.512-1.879-1.589-3.266-.21-.27-.439-.565-.684-.89l-.488-.647-.647.489c-1.477,1.115-2.3,1.907-2.431,2.886-.138,1.041.512,1.879,1.588,3.267.21.27.439.564.684.89l.063.084H26.841a.81.81,0,0,0,0,1.62H54.386a.81.81,0,1,0,0-1.62Zm-5.871-4.028c.043-.325.569-.827,1.168-1.312.067.088.133.172.2.254.761.981,1.311,1.69,1.263,2.06-.043.325-.568.826-1.167,1.312-.067-.088-.134-.172-.2-.255C49.015,335.171,48.465,334.463,48.514,334.092Zm-9.519,0c.043-.325.568-.827,1.167-1.312l.2.254c.762.981,1.312,1.69,1.263,2.06-.043.325-.568.826-1.167,1.312l-.2-.255C39.5,335.171,38.947,334.463,39,334.092Zm-9.722,0c.043-.325.569-.827,1.168-1.312.067.088.133.172.2.254.761.981,1.311,1.69,1.263,2.06-.043.325-.568.826-1.167,1.312l-.2-.255C29.775,335.171,29.226,334.463,29.274,334.092Zm0,0" transform="translate(-23.602 -299.65)" fill="#2d2d2d"/>
    <path id="Path_5900" data-name="Path 5900" d="M80.191,11.122a5.634,5.634,0,0,0,1.662,4.009A.81.81,0,1,0,83,13.986a4.048,4.048,0,0,1,0-5.728A5.667,5.667,0,0,0,83,.239a.81.81,0,0,0-1.145,1.145,4.047,4.047,0,0,1,0,5.728A5.629,5.629,0,0,0,80.191,11.122Zm0,0" transform="translate(-72.706 0)" fill="#2d2d2d"/>
    <path id="Path_5901" data-name="Path 5901" d="M186.426,11.122a5.633,5.633,0,0,0,1.662,4.009.81.81,0,1,0,1.146-1.145,4.047,4.047,0,0,1,0-5.728,5.667,5.667,0,0,0,0-8.019.81.81,0,0,0-1.145,1.145,4.048,4.048,0,0,1,0,5.728A5.632,5.632,0,0,0,186.426,11.122Zm0,0" transform="translate(-169.023 0)" fill="#2d2d2d"/>
  </g>
</svg>
