<svg xmlns="http://www.w3.org/2000/svg" width="30.211" height="40.089" viewBox="0 0 30.211 40.089">
  <path id="icon_9" d="M64.674,21.027c-2.815,0-5.915,1.42-6.5,4.567L56.159,36.5h6.79a.923.923,0,1,1,0,1.845l-7.918.006s0,.012,0,.012,0,.023,0,.023H53.3a.943.943,0,0,1,0-1.887h.94l2.08-11.244c.78-4.213,4.758-6.112,8.353-6.112h0c3.6,0,7.573,1.876,8.353,6.089l.447,2.4a.943.943,0,1,1-1.855.344l-.447-2.414C70.589,22.424,67.489,21.027,64.674,21.027Zm-1.826,2.327a.963.963,0,0,0,0,1.925h0a.963.963,0,0,0,0-1.925Zm0,3.558a.929.929,0,1,0,0,1.858h0a.929.929,0,1,0,0-1.858ZM56.865,1.059A.943.943,0,0,1,57.8,0H71.55a.943.943,0,0,1,.936,1.059l-.814,6.562s-.143,2.013-.182,2.446a7.727,7.727,0,0,1-3.56,6.218,6.417,6.417,0,0,1-6.52-.005,7.578,7.578,0,0,1-3.494-5.713c-.008-.058-.206-2.3-.262-2.958C57.623,7.25,56.865,1.059,56.865,1.059ZM69.628,9.716H59.719a5.989,5.989,0,0,0,2.65,4.975,4.53,4.53,0,0,0,4.6-.008A5.969,5.969,0,0,0,69.628,9.716ZM58.868,1.887,59.6,7.829H69.75l.732-5.943Zm23.6,21.995-3.578,7.246h2.265a.936.936,0,0,1,.943.935A8.006,8.006,0,0,1,79.2,38.235a.941.941,0,0,1-.234,1.854H69.169a.939.939,0,0,1-.234-1.849,8.015,8.015,0,0,1-2.906-6.177.937.937,0,0,1,.943-.936h9.817l3.991-8.082a.943.943,0,1,1,1.691.836Zm-2.328,9.133H67.987A6.159,6.159,0,0,0,74.061,38.2h.008A6.159,6.159,0,0,0,80.142,33.014Zm-13.616-9.66a.963.963,0,0,0,0,1.925h0a.963.963,0,0,0,0-1.925Zm0,3.558a.929.929,0,1,0,0,1.858h0a.929.929,0,1,0,0-1.858Z" transform="translate(-52.357)" fill="#2d2d2d"/>
</svg>
