<svg xmlns="http://www.w3.org/2000/svg" width="129" height="129" viewBox="0 0 129 129">
  <g id="Group_7635" data-name="Group 7635" transform="translate(-1037 -3248)" opacity="0.208">
    <rect id="Rectangle_2520" data-name="Rectangle 2520" width="9" height="9" transform="translate(1037 3248)" fill="#fff"/>
    <rect id="Rectangle_2521" data-name="Rectangle 2521" width="9" height="9" transform="translate(1054 3248)" fill="#fff"/>
    <rect id="Rectangle_2522" data-name="Rectangle 2522" width="9" height="9" transform="translate(1071 3248)" fill="#fff"/>
    <rect id="Rectangle_2523" data-name="Rectangle 2523" width="8" height="9" transform="translate(1089 3248)" fill="#fff"/>
    <rect id="Rectangle_2524" data-name="Rectangle 2524" width="8" height="9" transform="translate(1106 3248)" fill="#fff"/>
    <rect id="Rectangle_2525" data-name="Rectangle 2525" width="8" height="9" transform="translate(1123 3248)" fill="#fff"/>
    <rect id="Rectangle_2526" data-name="Rectangle 2526" width="9" height="9" transform="translate(1140 3248)" fill="#fff"/>
    <rect id="Rectangle_2527" data-name="Rectangle 2527" width="9" height="9" transform="translate(1157 3248)" fill="#fff"/>
    <rect id="Rectangle_2528" data-name="Rectangle 2528" width="9" height="9" transform="translate(1037 3265)" fill="#fff"/>
    <rect id="Rectangle_2529" data-name="Rectangle 2529" width="9" height="9" transform="translate(1054 3265)" fill="#fff"/>
    <rect id="Rectangle_2530" data-name="Rectangle 2530" width="9" height="9" transform="translate(1071 3265)" fill="#fff"/>
    <rect id="Rectangle_2531" data-name="Rectangle 2531" width="8" height="9" transform="translate(1089 3265)" fill="#fff"/>
    <rect id="Rectangle_2532" data-name="Rectangle 2532" width="8" height="9" transform="translate(1106 3265)" fill="#fff"/>
    <rect id="Rectangle_2533" data-name="Rectangle 2533" width="8" height="9" transform="translate(1123 3265)" fill="#fff"/>
    <rect id="Rectangle_2534" data-name="Rectangle 2534" width="9" height="9" transform="translate(1140 3265)" fill="#fff"/>
    <rect id="Rectangle_2535" data-name="Rectangle 2535" width="9" height="9" transform="translate(1157 3265)" fill="#fff"/>
    <rect id="Rectangle_2536" data-name="Rectangle 2536" width="9" height="9" transform="translate(1037 3282)" fill="#fff"/>
    <rect id="Rectangle_2537" data-name="Rectangle 2537" width="9" height="9" transform="translate(1054 3282)" fill="#fff"/>
    <rect id="Rectangle_2538" data-name="Rectangle 2538" width="9" height="9" transform="translate(1071 3282)" fill="#fff"/>
    <rect id="Rectangle_2539" data-name="Rectangle 2539" width="8" height="9" transform="translate(1089 3282)" fill="#fff"/>
    <rect id="Rectangle_2540" data-name="Rectangle 2540" width="8" height="9" transform="translate(1106 3282)" fill="#fff"/>
    <rect id="Rectangle_2541" data-name="Rectangle 2541" width="8" height="9" transform="translate(1123 3282)" fill="#fff"/>
    <rect id="Rectangle_2542" data-name="Rectangle 2542" width="9" height="9" transform="translate(1140 3282)" fill="#fff"/>
    <rect id="Rectangle_2543" data-name="Rectangle 2543" width="9" height="9" transform="translate(1157 3282)" fill="#fff"/>
    <rect id="Rectangle_2544" data-name="Rectangle 2544" width="9" height="8" transform="translate(1037 3300)" fill="#fff"/>
    <rect id="Rectangle_2545" data-name="Rectangle 2545" width="9" height="8" transform="translate(1054 3300)" fill="#fff"/>
    <rect id="Rectangle_2546" data-name="Rectangle 2546" width="9" height="8" transform="translate(1071 3300)" fill="#fff"/>
    <rect id="Rectangle_2547" data-name="Rectangle 2547" width="8" height="8" transform="translate(1089 3300)" fill="#fff"/>
    <rect id="Rectangle_2548" data-name="Rectangle 2548" width="8" height="8" transform="translate(1106 3300)" fill="#fff"/>
    <rect id="Rectangle_2549" data-name="Rectangle 2549" width="8" height="8" transform="translate(1123 3300)" fill="#fff"/>
    <rect id="Rectangle_2550" data-name="Rectangle 2550" width="9" height="8" transform="translate(1140 3300)" fill="#fff"/>
    <rect id="Rectangle_2551" data-name="Rectangle 2551" width="9" height="8" transform="translate(1157 3300)" fill="#fff"/>
    <rect id="Rectangle_2552" data-name="Rectangle 2552" width="9" height="8" transform="translate(1037 3317)" fill="#fff"/>
    <rect id="Rectangle_2553" data-name="Rectangle 2553" width="9" height="8" transform="translate(1054 3317)" fill="#fff"/>
    <rect id="Rectangle_2554" data-name="Rectangle 2554" width="9" height="8" transform="translate(1071 3317)" fill="#fff"/>
    <rect id="Rectangle_2555" data-name="Rectangle 2555" width="8" height="8" transform="translate(1089 3317)" fill="#fff"/>
    <rect id="Rectangle_2556" data-name="Rectangle 2556" width="8" height="8" transform="translate(1106 3317)" fill="#fff"/>
    <rect id="Rectangle_2557" data-name="Rectangle 2557" width="8" height="8" transform="translate(1123 3317)" fill="#fff"/>
    <rect id="Rectangle_2558" data-name="Rectangle 2558" width="9" height="8" transform="translate(1140 3317)" fill="#fff"/>
    <rect id="Rectangle_2559" data-name="Rectangle 2559" width="9" height="8" transform="translate(1157 3317)" fill="#fff"/>
    <rect id="Rectangle_2560" data-name="Rectangle 2560" width="9" height="8" transform="translate(1037 3334)" fill="#fff"/>
    <rect id="Rectangle_2561" data-name="Rectangle 2561" width="9" height="8" transform="translate(1054 3334)" fill="#fff"/>
    <rect id="Rectangle_2562" data-name="Rectangle 2562" width="9" height="8" transform="translate(1071 3334)" fill="#fff"/>
    <rect id="Rectangle_2563" data-name="Rectangle 2563" width="8" height="8" transform="translate(1089 3334)" fill="#fff"/>
    <rect id="Rectangle_2564" data-name="Rectangle 2564" width="8" height="8" transform="translate(1106 3334)" fill="#fff"/>
    <rect id="Rectangle_2565" data-name="Rectangle 2565" width="8" height="8" transform="translate(1123 3334)" fill="#fff"/>
    <rect id="Rectangle_2566" data-name="Rectangle 2566" width="9" height="8" transform="translate(1140 3334)" fill="#fff"/>
    <rect id="Rectangle_2567" data-name="Rectangle 2567" width="9" height="8" transform="translate(1157 3334)" fill="#fff"/>
    <rect id="Rectangle_2568" data-name="Rectangle 2568" width="9" height="9" transform="translate(1037 3351)" fill="#fff"/>
    <rect id="Rectangle_2569" data-name="Rectangle 2569" width="9" height="9" transform="translate(1054 3351)" fill="#fff"/>
    <rect id="Rectangle_2570" data-name="Rectangle 2570" width="9" height="9" transform="translate(1071 3351)" fill="#fff"/>
    <rect id="Rectangle_2571" data-name="Rectangle 2571" width="8" height="9" transform="translate(1089 3351)" fill="#fff"/>
    <rect id="Rectangle_2572" data-name="Rectangle 2572" width="8" height="9" transform="translate(1106 3351)" fill="#fff"/>
    <rect id="Rectangle_2573" data-name="Rectangle 2573" width="8" height="9" transform="translate(1123 3351)" fill="#fff"/>
    <rect id="Rectangle_2574" data-name="Rectangle 2574" width="9" height="9" transform="translate(1140 3351)" fill="#fff"/>
    <rect id="Rectangle_2575" data-name="Rectangle 2575" width="9" height="9" transform="translate(1157 3351)" fill="#fff"/>
    <rect id="Rectangle_2576" data-name="Rectangle 2576" width="9" height="9" transform="translate(1037 3368)" fill="#fff"/>
    <rect id="Rectangle_2577" data-name="Rectangle 2577" width="9" height="9" transform="translate(1054 3368)" fill="#fff"/>
    <rect id="Rectangle_2578" data-name="Rectangle 2578" width="9" height="9" transform="translate(1071 3368)" fill="#fff"/>
    <rect id="Rectangle_2579" data-name="Rectangle 2579" width="8" height="9" transform="translate(1089 3368)" fill="#fff"/>
    <rect id="Rectangle_2580" data-name="Rectangle 2580" width="8" height="9" transform="translate(1106 3368)" fill="#fff"/>
    <rect id="Rectangle_2581" data-name="Rectangle 2581" width="8" height="9" transform="translate(1123 3368)" fill="#fff"/>
    <rect id="Rectangle_2582" data-name="Rectangle 2582" width="9" height="9" transform="translate(1140 3368)" fill="#fff"/>
    <rect id="Rectangle_2583" data-name="Rectangle 2583" width="9" height="9" transform="translate(1157 3368)" fill="#fff"/>
  </g>
</svg>
