<svg xmlns="http://www.w3.org/2000/svg" xmlns:xlink="http://www.w3.org/1999/xlink" width="748.97" height="641.412" viewBox="0 0 748.97 641.412">
  <defs>
    <linearGradient id="linear-gradient" y1="0.5" x2="1" y2="0.5" gradientUnits="objectBoundingBox">
      <stop offset="0" stop-color="#11235c"/>
      <stop offset="1" stop-color="#09153b"/>
    </linearGradient>
    <linearGradient id="linear-gradient-2" x1="-0.41" y1="1.009" x2="0.816" y2="0.281" gradientUnits="objectBoundingBox">
      <stop offset="0" stop-color="#e6e6e6"/>
      <stop offset="0.005" stop-color="#1d3480"/>
      <stop offset="1" stop-color="#1b3483"/>
    </linearGradient>
  </defs>
  <g id="Group_7582" data-name="Group 7582" transform="translate(-315.33 -525.782)">
    <g id="Group_7168" data-name="Group 7168" transform="translate(315.33 525.782)">
      <path id="Path_5544" data-name="Path 5544" d="M675.522,671.8c66.211,0,120.382-54.17,120.382-120.38h0c0-66.21-54.172-120.382-120.382-120.384h0a51.048,51.048,0,0,1-50.9-50.9h0a51.049,51.049,0,0,1,50.9-50.9h6.059a53.074,53.074,0,0,0,52.918-52.92h0a53.074,53.074,0,0,0-52.918-52.92H663a20.665,20.665,0,0,1-20.6-20.6h0A20.665,20.665,0,0,1,663,182.2h13.655a14.26,14.26,0,0,0,14.219-14.217v0a14.261,14.261,0,0,0-14.219-14.219H584.858a22.406,22.406,0,0,1-22.341-22.341v0a22.406,22.406,0,0,1,22.341-22.341H612.3a14.261,14.261,0,0,0,14.219-14.219h0A14.261,14.261,0,0,0,612.3,80.637H210.32a18.608,18.608,0,0,0-18.554,18.552v0a18.608,18.608,0,0,0,18.554,18.552h28.148A29.24,29.24,0,0,1,267.621,146.9h0a29.24,29.24,0,0,1-29.153,29.155H129.576a18.609,18.609,0,0,0-18.554,18.554h0a18.61,18.61,0,0,0,18.554,18.554h17.818a26.962,26.962,0,0,1,26.883,26.881v0a26.963,26.963,0,0,1-26.883,26.883H123.145a69.256,69.256,0,0,0-69.053,69.053h0a69.256,69.256,0,0,0,69.053,69.053h7.906a66.613,66.613,0,0,1,66.417,66.418h0a66.613,66.613,0,0,1-66.417,66.419H113.932a67.163,67.163,0,0,0-66.967,66.967h0A67.163,67.163,0,0,0,113.932,671.8ZM162.842,117.746A18.554,18.554,0,1,1,181.4,99.191a18.554,18.554,0,0,1-18.554,18.554ZM716.553,182.2a14.22,14.22,0,1,1,14.22-14.219A14.22,14.22,0,0,1,716.553,182.2Z" transform="translate(-46.965 -80.637)" fill="#ebf4f4" fill-rule="evenodd"/>
      <path id="Path_5545" data-name="Path 5545" d="M74.468,658.864v-15.3H59.36c-.142-.2-.28-.4-.422-.606h50.193V623.022H49.47c-.057-.2-.11-.4-.164-.606H74.468V602.481H46.99c.007-.2.015-.405.024-.606h62.118V581.94H51c.074-.2.153-.405.228-.606H74.468V561.4H63.052q.262-.307.527-.608h45.554V540.855H94.182c.689-.214,1.384-.412,2.082-.606H143.8v-3.623c.2-.04.407-.075.608-.118v3.741h68.722V520.314H175.893c.217-.2.436-.4.652-.606h1.917v-1.883c.2-.208.407-.412.606-.622v2.506h68.722V499.773H191.063c.1-.2.19-.4.284-.606h21.778V479.233H196.984c.026-.2.05-.4.07-.606h50.734V458.69H196.2c-.04-.2-.075-.4-.118-.607h17.039V438.149h-24.7c-.118-.2-.237-.407-.357-.608h59.717V417.606H179.067v8.1c-.2-.212-.4-.416-.606-.622v-7.475h-8.671c-.282-.2-.567-.407-.852-.606h44.188V397.066H144.4v9.33c-.2-.041-.405-.077-.608-.116v-9.215H91.03c-.376-.2-.751-.4-1.125-.606h19.226V376.525H67.321c-.147-.2-.3-.4-.444-.608h7.591V355.982H57.048c-.063-.2-.123-.4-.182-.606h52.266V335.441H54.078c0-.2,0-.405.007-.608H74.468V314.9H57.387c.064-.2.131-.4.2-.606h51.546V294.358H68.124c.153-.2.309-.405.466-.606h5.879V287.1c.2-.2.4-.4.608-.593v7.243H143.8V273.817H93.148c.427-.208.858-.409,1.289-.608h14.7v-4.848l.608-.12v4.967h68.722V253.274h-7.712c.114-.2.226-.4.337-.606h42.039V232.732H173.238c-.057-.2-.118-.4-.18-.606h5.4V212.191H123.654c-.53-.177-1.048-.381-1.554-.606h21.7V191.65H111.24c.033-.2.068-.405.109-.608h67.113v-14.99h.606v14.99h68.722V174.508q.3-.1.607-.215v16.75h68.722V171.109h-62.48q.439-.3.867-.606h26.95V150.568H267.37c.026-.2.048-.405.068-.608h49.679V130.026H262.185c-.145-.2-.295-.407-.446-.608h20.714V109.485H213.732v8.259h-.608v-8.259H194.883c-.133-.2-.263-.4-.39-.608h53.3V88.942H194.854c.136-.2.278-.407.422-.606h17.849v-7.7h.608v7.7h68.722v-7.7h.606v7.7h68.722v-7.7h.608v7.7h68.72v-7.7h.607v7.7h68.722v-7.7h.608v7.7h68.722v-7.7h.606v7.7h64.535c.1.2.2.4.3.606h-30.17v19.935h19.6a14.112,14.112,0,0,1-2.349.2H584.837a22.119,22.119,0,0,0-4.246.411H560.373v19.933h2.213q-.028.3-.044.608H525.709v19.935h46.7q.469.315.954.608H560.373V170.5H629.1V153.759h.606V170.5h60.921c-.037.2-.077.405-.125.606H664.366V182.2h-.606V171.109H595.036v19.933h51.046q-.21.3-.409.608H629.7v19.935h14.653c.1.2.2.407.3.606H595.036v19.935H663.76V223.4h.606v8.725h46.205c.3.2.6.4.9.606H699.029v19.937h29.829c.1.2.2.4.3.606H664.366v19.935h68.72v-8.922q.348,1.469.608,2.973v5.949h.689c.013.2.026.4.035.608H699.029v19.935h32.478c-.072.2-.14.4-.214.606H664.366v19.935h53.956c-.21.2-.423.405-.639.606H699.029v11.358c-.2.07-.4.144-.606.212V314.9H629.7v19.935h22.669c-.383.2-.762.4-1.14.608h-56.2v19.935h36.043c-.112.2-.228.4-.341.606H629.7V358c-.208.427-.412.854-.606,1.289v-3.308H560.373v19.935h64.406c-.018.2-.033.405-.048.608H595.036V396.46H627.3c.07.2.144.4.215.606H560.373V417H629.1V400.993c.193.433.4.862.606,1.289V417h10.785c.217.2.436.407.654.606h-46.1v19.935H663.76v-7.878l.606.14v7.738h50.061q.856.3,1.71.608H699.029v19.933H751.3c.248.2.5.4.749.607H733.693v19.937H771.2c.155.2.313.4.466.606h-3.308v19.935h15.513c.1.2.193.4.291.606H733.693v19.935h57.913c.057.2.111.405.166.606H768.359v19.935h27l.053.606H733.693v19.937h61.823c-.015.2-.037.4-.053.608h-27.1v19.935H792.1c-.052.2-.109.4-.162.606h-58.24v19.935h51.029c-.094.2-.186.4-.284.606h-16.08v19.935h4.2c-.149.2-.293.4-.442.606H733.693v19.935h19.766c-.236.2-.475.405-.716.606H699.029V663.5h20.292c-.526.206-1.057.405-1.589.606H664.366v7.7h-.606v-7.7H595.036v7.7h-.606v-7.7H525.709v7.7H525.1v-7.7H456.38v7.7h-.606v-7.7H387.052v7.7h-.608v-7.7H317.723v7.7h-.606v-7.7H248.4v7.7h-.607v-7.7H179.067v7.7h-.606v-7.7H109.739v7.565c-.2-.013-.407-.024-.608-.039v-7.526H82.839c-.376-.2-.751-.4-1.125-.606H143.8V643.563H75.076v15.745c-.2-.147-.407-.294-.608-.444ZM178.26,109.485c.287-.431.556-.871.806-1.326V90.223q-.287-.522-.606-1.02v19.674H146.993c.125.2.256.407.388.608Zm.029-20.543c-.136-.2-.276-.407-.422-.606h-30.1c-.144.2-.284.4-.42.606Zm524.37,82.167H730.4c.046-.2.087-.4.123-.606H702.537c.035.2.079.405.123.606Zm-4.236,472.454H629.7V663.5h68.722V643.563Zm-69.327,0H560.373V663.5H629.1V643.563Zm-69.329,0H491.045V663.5h68.722V643.563Zm-69.329,0H421.716V663.5h68.722V643.563Zm-69.329,0h-68.72V663.5h68.72V643.563Zm-69.327,0H283.06V663.5h68.722V643.563Zm-69.327,0H213.732V663.5h68.722V643.563Zm-69.329,0H144.4V663.5h68.722V643.563Zm519.961-20.541h-68.72v19.935h68.72V623.022Zm-69.326,0H595.036v19.935H663.76V623.022Zm-69.329,0H525.709v19.935h68.722V623.022Zm-69.329,0H456.38v19.935H525.1V623.022Zm-69.327,0H387.052v19.935h68.722V623.022Zm-69.329,0H317.723v19.935h68.722V623.022Zm-69.327,0H248.4v19.935h68.722V623.022Zm-69.329,0H179.067v19.935h68.722V623.022Zm-69.327,0H109.739v19.935h68.722V623.022Zm589.29-20.541H699.029v19.935h68.722V602.481Zm-69.327,0H629.7v19.935h68.722V602.481Zm-69.327,0H560.373v19.935H629.1V602.481Zm-69.329,0H491.045v19.935h68.722V602.481Zm-69.329,0H421.716v19.935h68.722V602.481Zm-69.329,0h-68.72v19.935h68.72V602.481Zm-69.327,0H283.06v19.935h68.722V602.481Zm-69.327,0H213.732v19.935h68.722V602.481Zm-69.329,0H144.4v19.935h68.722V602.481Zm-69.329,0H75.076v19.935H143.8V602.481Zm589.29-20.541h-68.72v19.935h68.72V581.94Zm-69.326,0H595.036v19.935H663.76V581.94Zm-69.329,0H525.709v19.935h68.722V581.94Zm-69.329,0H456.38v19.935H525.1V581.94Zm-69.327,0H387.052v19.935h68.722V581.94Zm-69.329,0H317.723v19.935h68.722V581.94Zm-69.327,0H248.4v19.935h68.722V581.94Zm-69.329,0H179.067v19.935h68.722V581.94Zm-69.327,0H109.739v19.935h68.722V581.94ZM767.751,561.4H699.029v19.935h68.722V561.4Zm-69.327,0H629.7v19.935h68.722V561.4Zm-69.327,0H560.373v19.935H629.1V561.4Zm-69.329,0H491.045v19.935h68.722V561.4Zm-69.329,0H421.716v19.935h68.722V561.4Zm-69.329,0h-68.72v19.935h68.72V561.4Zm-69.327,0H283.06v19.935h68.722V561.4Zm-69.327,0H213.732v19.935h68.722V561.4Zm-69.329,0H144.4v19.935h68.722V561.4Zm-69.329,0H75.076v19.935H143.8V561.4Zm589.29-20.545h-68.72v19.937h68.72V540.855Zm-69.326,0H595.036v19.937H663.76V540.855Zm-69.329,0H525.709v19.937h68.722V540.855Zm-69.329,0H456.38v19.937H525.1V540.855Zm-69.327,0H387.052v19.937h68.722V540.855Zm-69.329,0H317.723v19.937h68.722V540.855Zm-69.327,0H248.4v19.937h68.722V540.855Zm-69.329,0H179.067v19.937h68.722V540.855Zm-69.327,0H109.739v19.937h68.722V540.855Zm589.29-20.541H699.029v19.935h68.722V520.314Zm-69.327,0H629.7v19.935h68.722V520.314Zm-69.327,0H560.373v19.935H629.1V520.314Zm-69.329,0H491.045v19.935h68.722V520.314Zm-69.329,0H421.716v19.935h68.722V520.314Zm-69.329,0h-68.72v19.935h68.72V520.314Zm-69.327,0H283.06v19.935h68.722V520.314Zm-69.327,0H213.732v19.935h68.722V520.314Zm450.632-20.541h-68.72v19.935h68.72V499.773Zm-69.326,0H595.036v19.935H663.76V499.773Zm-69.329,0H525.709v19.935h68.722V499.773Zm-69.329,0H456.38v19.935H525.1V499.773Zm-69.327,0H387.052v19.935h68.722V499.773Zm-69.329,0H317.723v19.935h68.722V499.773Zm-69.327,0H248.4v19.935h68.722V499.773Zm450.634-20.541H699.029v19.935h68.722V479.233Zm-69.327,0H629.7v19.935h68.722V479.233Zm-69.327,0H560.373v19.935H629.1V479.233Zm-69.329,0H491.045v19.935h68.722V479.233Zm-69.329,0H421.716v19.935h68.722V479.233Zm-69.329,0h-68.72v19.935h68.72V479.233Zm-69.327,0H283.06v19.935h68.722V479.233Zm-69.327,0H213.732v19.935h68.722V479.233ZM733.085,458.69h-68.72v19.937h68.72V458.69Zm-69.326,0H595.036v19.937H663.76V458.69Zm-69.329,0H525.709v19.937h68.722V458.69Zm-69.329,0H456.38v19.937H525.1V458.69Zm-69.327,0H387.052v19.937h68.722V458.69Zm-69.329,0H317.723v19.937h68.722V458.69Zm-69.327,0H248.4v19.937h68.722V458.69Zm381.306-20.541H629.7v19.933h68.722V438.149Zm-69.327,0H560.373v19.933H629.1V438.149Zm-69.329,0H491.045v19.933h68.722V438.149Zm-69.329,0H421.716v19.933h68.722V438.149Zm-69.329,0h-68.72v19.933h68.72V438.149Zm-69.327,0H283.06v19.933h68.722V438.149Zm-69.327,0H213.732v19.933h68.722V438.149Zm311.977-20.543H525.709v19.935h68.722V417.606Zm-69.329,0H456.38v19.935H525.1V417.606Zm-69.327,0H387.052v19.935h68.722V417.606Zm-69.329,0H317.723v19.935h68.722V417.606Zm-69.327,0H248.4v19.935h68.722V417.606Zm242.65-20.541H491.045V417h68.722V397.066Zm-69.329,0H421.716V417h68.722V397.066Zm-69.329,0h-68.72V417h68.72V397.066Zm-69.327,0H283.06V417h68.722V397.066Zm-69.327,0H213.732V417h68.722V397.066Zm311.977-20.541H525.709V396.46h68.722V376.525Zm-69.329,0H456.38V396.46H525.1V376.525Zm-69.327,0H387.052V396.46h68.722V376.525Zm-69.329,0H317.723V396.46h68.722V376.525Zm-69.327,0H248.4V396.46h68.722V376.525Zm-69.329,0H179.067V396.46h68.722V376.525Zm-69.327,0H109.739V396.46h68.722V376.525Zm381.306-20.543H491.045v19.935h68.722V355.982Zm-69.329,0H421.716v19.935h68.722V355.982Zm-69.329,0h-68.72v19.935h68.72V355.982Zm-69.327,0H283.06v19.935h68.722V355.982Zm-69.327,0H213.732v19.935h68.722V355.982Zm-69.329,0H144.4v19.935h68.722V355.982Zm-69.329,0H75.076v19.935H143.8V355.982Zm450.635-20.541H525.709v19.935h68.722V335.441Zm-69.329,0H456.38v19.935H525.1V335.441Zm-69.327,0H387.052v19.935h68.722V335.441Zm-69.329,0H317.723v19.935h68.722V335.441Zm-69.327,0H248.4v19.935h68.722V335.441Zm-69.329,0H179.067v19.935h68.722V335.441Zm-69.327,0H109.739v19.935h68.722V335.441ZM629.1,314.9H560.373v19.935H629.1V314.9Zm-69.329,0H491.045v19.935h68.722V314.9Zm-69.329,0H421.716v19.935h68.722V314.9Zm-69.329,0h-68.72v19.935h68.72V314.9Zm-69.327,0H283.06v19.935h68.722V314.9Zm-69.327,0H213.732v19.935h68.722V314.9Zm-69.329,0H144.4v19.935h68.722V314.9Zm-69.329,0H75.076v19.935H143.8V314.9ZM663.76,294.358H595.036v19.935H663.76V294.358Zm-69.329,0H525.709v19.935h68.722V294.358Zm-69.329,0H456.38v19.935H525.1V294.358Zm-69.327,0H387.052v19.935h68.722V294.358Zm-69.329,0H317.723v19.935h68.722V294.358Zm-69.327,0H248.4v19.935h68.722V294.358Zm-69.329,0H179.067v19.935h68.722V294.358Zm-69.327,0H109.739v19.935h68.722V294.358Zm519.963-20.541H629.7v19.935h68.722V273.817Zm-69.327,0H560.373v19.935H629.1V273.817Zm-69.329,0H491.045v19.935h68.722V273.817Zm-69.329,0H421.716v19.935h68.722V273.817Zm-69.329,0h-68.72v19.935h68.72V273.817Zm-69.327,0H283.06v19.935h68.722V273.817Zm-69.327,0H213.732v19.935h68.722V273.817Zm-69.329,0H144.4v19.935h68.722V273.817ZM663.76,253.274H595.036v19.935H663.76V253.274Zm-69.329,0H525.709v19.935h68.722V253.274Zm-69.329,0H456.38v19.935H525.1V253.274Zm-69.327,0H387.052v19.935h68.722V253.274Zm-69.329,0H317.723v19.935h68.722V253.274Zm-69.327,0H248.4v19.935h68.722V253.274Zm-69.329,0H179.067v19.935h68.722V253.274Zm450.635-20.543H629.7v19.937h68.722V232.732Zm-69.327,0H560.373v19.937H629.1V232.732Zm-69.329,0H491.045v19.937h68.722V232.732Zm-69.329,0H421.716v19.937h68.722V232.732Zm-69.329,0h-68.72v19.937h68.72V232.732Zm-69.327,0H283.06v19.937h68.722V232.732Zm-69.327,0H213.732v19.937h68.722V232.732Zm311.977-20.541H525.709v19.935h68.722V212.191Zm-69.329,0H456.38v19.935H525.1V212.191Zm-69.327,0H387.052v19.935h68.722V212.191Zm-69.329,0H317.723v19.935h68.722V212.191Zm-69.327,0H248.4v19.935h68.722V212.191Zm-69.329,0H179.067v19.935h68.722V212.191ZM629.1,191.65H560.373v19.935H629.1V191.65Zm-69.329,0H491.045v19.935h68.722V191.65Zm-69.329,0H421.716v19.935h68.722V191.65Zm-69.329,0h-68.72v19.935h68.72V191.65Zm-69.327,0H283.06v19.935h68.722V191.65Zm-69.327,0H213.732v19.935h68.722V191.65Zm-69.329,0H144.4v19.935h68.722V191.65Zm381.306-20.541H525.709v19.933h68.722V171.109Zm-69.329,0H456.38v19.933H525.1V171.109Zm-69.327,0H387.052v19.933h68.722V171.109Zm-69.329,0H317.723v19.933h68.722V171.109Zm173.322-20.541H491.045V170.5h68.722V150.568Zm-69.329,0H421.716V170.5h68.722V150.568Zm-69.329,0h-68.72V170.5h68.72V150.568Zm-69.327,0H283.06V170.5h68.722V150.568ZM525.1,130.026H456.38v19.935H525.1V130.026Zm-69.327,0H387.052v19.935h68.722V130.026Zm-69.329,0H317.723v19.935h68.722V130.026Zm173.322-20.541H491.045v19.933h68.722V109.485Zm-69.329,0H421.716v19.933h68.722V109.485Zm-69.329,0h-68.72v19.933h68.72V109.485Zm-69.327,0H283.06v19.933h68.722V109.485ZM594.431,88.942H525.709v19.935h68.722V88.942Zm-69.329,0H456.38v19.935H525.1V88.942Zm-69.327,0H387.052v19.935h68.722V88.942Zm-69.329,0H317.723v19.935h68.722V88.942Zm-69.327,0H248.4v19.935h68.722Z" transform="translate(-46.944 -80.637)" fill="#c8dee1" fill-rule="evenodd"/>
    </g>
    <path id="Path_5610" data-name="Path 5610" d="M35.339,409.384H55.192a6.305,6.305,0,0,1,6.286,6.286h0a6.3,6.3,0,0,1-6.286,6.283H45.759a5.006,5.006,0,0,0-4.99,4.989h0a5.005,5.005,0,0,0,4.99,4.99H648.566a5.005,5.005,0,0,0,4.99-4.99h0a5,5,0,0,0-4.99-4.989h-9a6.3,6.3,0,0,1-6.286-6.283h0a6.3,6.3,0,0,1,6.286-6.286h39.4a10.007,10.007,0,0,0,9.977-9.979h0a10.008,10.008,0,0,0-9.977-9.976H35.339a10.009,10.009,0,0,0-9.977,9.976h0a10.008,10.008,0,0,0,9.977,9.979Zm-3.061,22.548a4.989,4.989,0,1,1,4.989-4.99A4.99,4.99,0,0,1,32.278,431.933Z" transform="translate(375.36 735.261)" fill="#262627" fill-rule="evenodd"/>
    <g id="Group_7581" data-name="Group 7581" transform="translate(523.355 621.708)">
      <g id="Group_7577" data-name="Group 7577" transform="translate(0)">
        <g id="Group_7572" data-name="Group 7572" transform="translate(265.431 325.314)">
          <path id="Path_5883" data-name="Path 5883" d="M2289.871,895.656l-25.3-168.266,4.873-.751,25.3,168.266Z" transform="translate(-2264.571 -726.639)" fill="#5c5049"/>
        </g>
        <g id="Group_7573" data-name="Group 7573" transform="translate(234.535 325.314)">
          <path id="Path_5884" data-name="Path 5884" d="M2256.789,895.656l-25.3-168.266,4.873-.751,25.3,168.266Z" transform="translate(-2231.488 -726.639)" fill="#5c5049"/>
        </g>
        <g id="Group_7574" data-name="Group 7574" transform="translate(102.787 325.314)">
          <path id="Path_5885" data-name="Path 5885" d="M2095.286,895.656l-4.873-.752,25.3-168.266,4.873.751Z" transform="translate(-2090.413 -726.639)" fill="#5c5049"/>
        </g>
        <path id="Path_5886" data-name="Path 5886" d="M2268.287,714.261l19.819-208.515s-34.664-4.535-55.61-3.418l-31.481,211.933Z" transform="translate(-1994.939 -386.483)" fill="#b3b1b7"/>
        <rect id="Rectangle_2661" data-name="Rectangle 2661" width="67.272" height="10.596" transform="translate(206.076 317.182)" fill="#c9c5b4"/>
        <path id="Path_5887" data-name="Path 5887" d="M2153.147,705.786l-10.515-198.707s87.727-9.528,141.614-1.314Z" transform="translate(-1991.079 -386.501)" fill="#a09f9a"/>
        <path id="Path_5888" data-name="Path 5888" d="M2222.875,434.529s13.547-39.727-12.3-52.042-47.8,5.487-51.946,15.121-3.047,27.15.488,39.365,3.021,30.809-4.661,37.028-17.208,16.548-16.735,37.572c.292,13.044,51.325-33.365,51.325-33.365Z" transform="translate(-1990.752 -378.295)" fill="#292c47"/>
        <path id="Path_5889" data-name="Path 5889" d="M2191.241,893.082s-.805,28.073,3.2,29.762,19.182-8.073,25.875-17.727-8.385-32.124-10.86-44.521c-1.035-5.191-12.825-14.528-18.575-11.852s-9.945,9.531-9.945,9.531S2195.567,868.3,2191.241,893.082Z" transform="translate(-1993.611 -409.366)" fill="#d4c3bd"/>
        <g id="Group_7575" data-name="Group 7575" transform="translate(187.328 439.377)">
          <path id="Path_5890" data-name="Path 5890" d="M2180.939,858.308a154.9,154.9,0,0,1,7.538,17.014c2.559,7.436,3.038,28.018,4.65,29.448s14.328-4.986,16.025-12.683-3.459-23.083-8.367-31.172a50.253,50.253,0,0,0-9.9-12.138S2182.216,850.463,2180.939,858.308Z" transform="translate(-2180.939 -848.777)" fill="#de9673"/>
        </g>
        <path id="Path_5891" data-name="Path 5891" d="M2211.479,861.468l13.663,19.94-2.587,1.773-10.56-15.412Z" transform="translate(-1995.63 -410.239)" fill="#d4c3bd"/>
        <path id="Path_5892" data-name="Path 5892" d="M2155.186,624.859s6.681,11.281,0,19.495-51.6,30.776-51.272,43.81,8.558,33.432,11.514,38.607,13.867,26.649,19.533,39.217,38.441,72.693,44.849,86.245,2.463-54.211,2.463-54.211l-32.774-96.1,76.575-74.6S2216.808,606.691,2155.186,624.859Z" transform="translate(-1988.519 -394.101)" fill="#de9673"/>
        <path id="Path_5893" data-name="Path 5893" d="M2185.988,489.037s-21.248,4.71-29.682,9.639-27.161,27.6-27.161,37.347,81.9,18.855,81.9,18.855l15.524,56.676s41.4-10.1,46.325-18.482-16.3-68.01-19.258-80.578-18.443-21.041-35.693-23.457A118.417,118.417,0,0,0,2185.988,489.037Z" transform="translate(-1990.187 -385.545)" fill="#6d547c"/>
        <path id="Path_5894" data-name="Path 5894" d="M2237.225,627.383s-1.479,9.693,2.465,13.8,22.1,28.055,12.485,51.586c-8.83,21.6-25.956,21.193-25.956,21.193h-26.506s7.7,38.888,5.21,64.515-14.174,84.148-14.421,87.1-11.206,12.2-14.41,7.52c0,0-.295-35.237-2.021-48.544s-9.067-66.532-11.285-74.418-15.277-31.787-15.277-34.251-12.756-41.042,15.09-50.9S2200.284,627.588,2237.225,627.383Z" transform="translate(-1991.208 -394.763)" fill="#eea886"/>
        <path id="Path_5895" data-name="Path 5895" d="M2163.033,917.109s-18.28,21.322-16.227,25.155,19.993,5.785,31.268,2.488,13.682-30.25,19.554-41.446c2.458-4.686-.837-19.36-6.99-20.9s-13.727,1.156-13.727,1.156S2181.981,900.56,2163.033,917.109Z" transform="translate(-1991.344 -411.592)" fill="#e6d3cc"/>
        <g id="Group_7576" data-name="Group 7576" transform="translate(165.82 469.279)">
          <path id="Path_5896" data-name="Path 5896" d="M2177.656,883.491a154.759,154.759,0,0,1-4.839,17.969c-2.685,7.391-15.258,23.7-14.9,25.821s14.274,5.133,20.434.217,11.827-20.124,13.1-29.5a50.261,50.261,0,0,0-.064-15.664S2183.583,878.195,2177.656,883.491Z" transform="translate(-2157.908 -880.795)" fill="#eea886"/>
        </g>
        <path id="Path_5897" data-name="Path 5897" d="M2200.88,904.819l-1.918,24.1-3.126-.249,1.482-18.624Z" transform="translate(-1994.596 -413.105)" fill="#e6d3cc"/>
        <path id="Path_5898" data-name="Path 5898" d="M2249.478,692.108c-8.338,21.89-25.957,21.193-25.957,21.193h-26.5s-11.056-17.522-38.129-20.532a80.106,80.106,0,0,0-20.417.487l-.277.039c-35.971,5.329-29.026,18.532-28.916,18.878-2.988-7.3-6.13-18.908-5.373-25.159,3.45-28.475,44.59-34.445,51.272-42.659s0-19.494,0-19.494c61.622-18.168,70.89,2.461,70.89,2.461,2.7-.374,9.623-4.362,12.567-4.378,0,0,3.085,6.735,5.257,12.814C2245.808,641.118,2258.525,668.351,2249.478,692.108Z" transform="translate(-1988.511 -394.101)" fill="#6d547c"/>
        <path id="Path_5899" data-name="Path 5899" d="M2223.918,529.535l9.117,84.767h-120l-9.118-84.767Z" transform="translate(-1988.519 -388.294)" fill="#ded1c5"/>
        <rect id="Rectangle_2662" data-name="Rectangle 2662" width="20.043" height="7.626" transform="translate(234.024 218.382)" fill="#ded1c5"/>
        <rect id="Rectangle_2663" data-name="Rectangle 2663" width="374.44" height="11.541" transform="translate(0 226.008)" fill="#bc8551"/>
        <path id="Path_5900" data-name="Path 5900" d="M2202.112,390s26.888,7.957,23.045,45.267-21.4,35.391-23.045,35.665-22.495,1.645-29.079-43.621S2202.112,390,2202.112,390Z" transform="translate(-1993.035 -379.033)" fill="#eea886"/>
        <path id="Path_5901" data-name="Path 5901" d="M2215.8,468.752s-1.423,12.353.954,20.036-31.316,7.9-31.3,1.577c.021-7.176,3.447-13.171.22-25.47S2215.8,468.752,2215.8,468.752Z" transform="translate(-1993.91 -383.715)" fill="#eea886"/>
        <path id="Path_5902" data-name="Path 5902" d="M2195.035,406.475s14.609,23.239,29.985,28.63c0,0,8.4-38.994-26.281-47.165s-29.244,39.387-26.656,52.068A103.058,103.058,0,0,1,2195.035,406.475Z" transform="translate(-1992.896 -378.87)" fill="#292c47"/>
        <path id="Path_5903" data-name="Path 5903" d="M2189.965,471.039s10.637,11.083,24.241,1.156c0,0-1.124,7.083-10.908,8S2189.965,471.039,2189.965,471.039Z" transform="translate(-1994.208 -384.426)" fill="#a77860"/>
        <path id="Path_5904" data-name="Path 5904" d="M2175.815,402.855s7.691-14.892,20.676-15.558,20.708,10.6,20.708,10.6-5.069-12.684-20.691-12.684S2175.815,402.855,2175.815,402.855Z" transform="translate(-1993.272 -378.752)" fill="#fff" opacity="0.72"/>
        <path id="Path_5905" data-name="Path 5905" d="M2220,488.8s-.476,25.825-20.957,26.591-16.217-24.771-16.217-24.771S2197.8,484.549,2220,488.8Z" transform="translate(-1993.711 -385.5)" fill="#eea886"/>
        <rect id="Rectangle_2664" data-name="Rectangle 2664" width="8.488" height="265.043" transform="translate(365.952 237.549)" fill="#807066"/>
        <rect id="Rectangle_2665" data-name="Rectangle 2665" width="8.488" height="265.043" transform="translate(12.687 237.549)" fill="#807066"/>
      </g>
      <g id="Group_7578" data-name="Group 7578" transform="translate(62.404 119.039)">
        <path id="Path_5906" data-name="Path 5906" d="M2062.146,584.186h0s7.172,3.43,5.3,1.871,4.678-10.29,13.72-21.826,3.117-16.526-2.494-29.933c-2.232-5.331-6.139-7.31-9.873-7.211-5.657.148-10.918,5.069-9.35,10.33,2.6,8.73,6.126,17.149-.421,25.879C2052.539,571.948,2061.978,583.972,2062.146,584.186Z" transform="translate(-2047.805 -507.17)" fill="#11235c"/>
        <path id="Path_5907" data-name="Path 5907" d="M2083.023,536.611c4.378-2.182,9.679-9.978,5.313-11.848s-.96-7.484-5.312-7.484-6.535,6.774-4.041,10.56C2078.982,527.839,2078.644,538.794,2083.023,536.611Z" transform="translate(-2049.205 -506.522)" fill="#11235c"/>
        <path id="Path_5908" data-name="Path 5908" d="M2084.207,516.948s6.859-5.925,0-7.172-4.989,6.237-4.365,7.172S2084.207,516.948,2084.207,516.948Z" transform="translate(-2049.285 -506.017)" fill="#0f2b83"/>
        <path id="Path_5909" data-name="Path 5909" d="M2055.186,538.843c5.3-.935,5.3-6.236,5.3-6.236s-4.21-7.8-7.794-4.209S2049.885,539.779,2055.186,538.843Z" transform="translate(-2047.391 -507.195)" fill="#a09832"/>
        <path id="Path_5910" data-name="Path 5910" d="M2062.146,584.186h0s10.447-19.02,4.989-32.427c-3.823-9.395-.6-19.477,1.665-24.672-5.657.148-10.918,5.069-9.35,10.33,2.6,8.73,6.126,17.149-.421,25.879C2052.539,571.948,2061.978,583.972,2062.146,584.186Z" transform="translate(-2047.805 -507.171)" fill="#11235c"/>
        <path id="Path_5911" data-name="Path 5911" d="M2079.862,587.981h-30.94l1.321,4.528h28.487Z" transform="translate(-2047.287 -511.197)" fill="#a19aac"/>
        <path id="Path_5912" data-name="Path 5912" d="M2073.527,618.486l2.567-20.538.639-5.119h-23.77l3.018,25.658Z" transform="translate(-2047.555 -511.517)" fill="#6d547c"/>
        <g id="Path_5913" data-name="Path 5913" transform="translate(-2048.21 -507.113)" fill="#fff">
          <path d="M 2083.38134765625 551.6942138671875 L 2083.38134765625 551.5048828125 L 2083.38134765625 550.570068359375 L 2083.38134765625 550.5107421875 L 2083.43359375 550.4822998046875 L 2090.286865234375 546.7403564453125 L 2090.39111328125 546.9107055664062 L 2083.537841796875 551.5874633789062 L 2083.38134765625 551.6942138671875 Z" stroke="none"/>
          <path d="M 2083.4814453125 551.5048828125 L 2090.334716796875 546.828125 L 2083.4814453125 550.570068359375 L 2083.4814453125 551.5048828125 M 2083.281494140625 551.8834838867188 L 2083.281494140625 551.5048828125 L 2083.281494140625 550.570068359375 L 2083.281494140625 550.451416015625 L 2083.385498046875 550.39453125 L 2090.23876953125 546.652587890625 L 2090.447509765625 546.9933471679688 L 2083.59423828125 551.6701049804688 L 2083.281494140625 551.8834838867188 Z" stroke="none" fill="#a09999"/>
        </g>
        <path id="Path_5914" data-name="Path 5914" d="M2075.134,518.949l3.735,3.352.319-.779Z" transform="translate(-2049.021 -506.633)" fill="#727643"/>
        <path id="Path_5915" data-name="Path 5915" d="M2084.983,521.826l4.521-.623h-4.131Z" transform="translate(-2049.672 -506.782)" fill="#727643"/>
        <path id="Path_5916" data-name="Path 5916" d="M2080.143,505.761l1.324,4.521h.545Z" transform="translate(-2049.352 -505.761)" fill="#727643"/>
        <path id="Path_5917" data-name="Path 5917" d="M2085.818,510.47l.39.623,2.962-2.494Z" transform="translate(-2049.727 -505.948)" fill="#727643"/>
        <path id="Path_5918" data-name="Path 5918" d="M2083.481,509.747l.834.311-.834-2.962Z" transform="translate(-2049.572 -505.849)" fill="#727643"/>
        <g id="Path_5919" data-name="Path 5919" transform="translate(-2048.066 -508.134)" fill="#fff">
          <path d="M 2084.07958984375 569.4785766601562 L 2081.217529296875 562.3070678710938 L 2081.162841796875 562.1700439453125 L 2081.310302734375 562.1700439453125 L 2082.79150390625 562.1700439453125 L 2082.8740234375 562.1700439453125 L 2082.8896484375 562.2510986328125 L 2084.2705078125 569.422607421875 L 2084.07958984375 569.4785766601562 Z" stroke="none"/>
          <path d="M 2081.310302734375 562.27001953125 L 2084.17236328125 569.4415283203125 L 2082.79150390625 562.27001953125 L 2081.310302734375 562.27001953125 M 2081.01513671875 562.0700073242188 L 2081.310302734375 562.0700073242188 L 2082.79150390625 562.0700073242188 L 2082.95654296875 562.0700073242188 L 2082.98779296875 562.232177734375 L 2084.36865234375 569.4036865234375 L 2083.986572265625 569.515625 L 2081.12451171875 562.3441772460938 L 2081.01513671875 562.0700073242188 Z" stroke="none" fill="#a09999"/>
        </g>
        <path id="Path_5920" data-name="Path 5920" d="M2053.1,532.63l-5.923-4.053,5.4,4.686Z" transform="translate(-2047.172 -507.269)" fill="#727643"/>
        <path id="Path_5921" data-name="Path 5921" d="M2057.809,569.949l-8.523,1.377h8.523Z" transform="translate(-2047.312 -510.004)" fill="#727643"/>
        <path id="Path_5922" data-name="Path 5922" d="M2076.093,597.948l.64-5.119h-23.77l3.018,25.658h5.79C2061.293,604.385,2071.459,599.458,2076.093,597.948Z" transform="translate(-2047.555 -511.517)" fill="#6d547c"/>
      </g>
      <g id="Group_7579" data-name="Group 7579" transform="translate(26.192 89.184)">
        <path id="Path_5923" data-name="Path 5923" d="M2063.467,577.45l-.2,2.069-.638,6.761-.161,1.7-.268,2.822-.162,1.708-1.376,14.537-.893,9.413-.072.781h-44.465l-.144-2.235-1.7-26.89-.548-8.6-.072-1.152-.027-.4-.25-3.905,23.605,1.572,1.292.085,3.861.255,12.753.85.4.026,8.69.578Z" transform="translate(-2008.666 -480.421)" fill="#bc8796"/>
        <path id="Path_5924" data-name="Path 5924" d="M2060.493,562.57l7.537-34.975s-13.638,26.559-13.638,37.685S2060.493,562.57,2060.493,562.57Z" transform="translate(-2011.437 -477.349)" fill="#ac677b"/>
        <path id="Path_5925" data-name="Path 5925" d="M2056.543,558.429s7.536-49.17,2.153-63.884c0,0-10.768,49.006-9.69,65.84S2056.543,558.429,2056.543,558.429Z" transform="translate(-2011.076 -475.164)" fill="#6d547c"/>
        <path id="Path_5926" data-name="Path 5926" d="M2025.059,565.674c-1.436-8.613-12.569-32.127-12.569-32.127-.724,12.018,5.391,32.127,5.391,32.127S2026.494,574.287,2025.059,565.674Z" transform="translate(-2008.662 -477.743)" fill="#6d547c"/>
        <path id="Path_5927" data-name="Path 5927" d="M2029.276,563.8c-1.077-10.049-12.562-47.734-12.562-47.734-1.436,9.69,5.385,47.734,5.385,47.734S2030.353,573.849,2029.276,563.8Z" transform="translate(-2008.932 -476.587)" fill="#6d547c"/>
        <path id="Path_5928" data-name="Path 5928" d="M2033.234,562.508c-.718-4.307-9.921-71.422-9.921-71.422-3.82,10.049,2.545,69.07,2.545,69.07C2026.236,563.813,2033.952,566.814,2033.234,562.508Z" transform="translate(-2009.301 -474.935)" fill="#c4899a"/>
        <path id="Path_5929" data-name="Path 5929" d="M2037.09,559.013c0-5.581-7.082-85.221-7.082-85.221-.98,5.024-3.883,52.922-3.883,52.922l3.787,34.29S2037.09,564.595,2037.09,559.013Z" transform="translate(-2009.568 -473.792)" fill="#6d547c"/>
        <path id="Path_5930" data-name="Path 5930" d="M2050.949,489.549s-11.887,63.644-11.166,73.634,12.282,13.975,11.166-31.086C2050.949,532.1,2051.707,497.8,2050.949,489.549Z" transform="translate(-2010.469 -474.834)" fill="#c4899a"/>
        <path id="Path_5931" data-name="Path 5931" d="M2048.192,525.689s-1.02-20.1-2.8-26.917c0,0-8.6,61.309-7.528,66.366S2046.636,555.4,2048.192,525.689Z" transform="translate(-2010.338 -475.443)" fill="#c4899a"/>
        <path id="Path_5932" data-name="Path 5932" d="M2042.6,540.083c1.889-21.906-6.914-55.53-6.914-55.53-2.513,5.024-3.688,34.125-3.688,34.125s3.329,47.7,5.39,51.034S2040.708,561.989,2042.6,540.083Z" transform="translate(-2009.956 -474.503)" fill="#6d547c"/>
        <path id="Path_5933" data-name="Path 5933" d="M2063.485,577.646l-.2,2.069-.637,6.761-.161,1.7-.268,2.822-.162,1.708a26.24,26.24,0,0,0-10.909,5.49c-4.571,3.654-9.743,9.595-14.689,19.241h-21.208l-.145-2.236-1.7-26.889-.548-8.6-.072-1.151-.026-.4,28.509-.79,12.753-.353.4.025,8.691.578Z" transform="translate(-2008.684 -480.616)" fill="#bc8796"/>
        <path id="Path_5934" data-name="Path 5934" d="M2011.691,565.046l-3.3,13.879h58.628l-3.7-13.879Z" transform="translate(-2008.396 -479.825)" fill="#a19aac"/>
      </g>
      <g id="Group_7580" data-name="Group 7580" transform="translate(301.397 158.773)">
        <path id="Path_5935" data-name="Path 5935" d="M2345.507,584.875c-2.6-1.726-6.183-1.314-8.668-.694l.907-6.517h-34.661l5.549,39.819H2332.2l.519-3.721.5-3.574a13.989,13.989,0,0,0,9.344-3.687c3.748-3.431,5.9-8.962,5.9-15.172C2348.462,587.618,2346.854,585.771,2345.507,584.875Zm-5.5,18.838a10.088,10.088,0,0,1-6.263,2.67l2.519-18.091c1.85-.629,5.361-1.455,7.146-.268.313.208,1.267.842,1.267,3.306C2344.68,596.483,2342.979,601,2340.011,603.714Z" transform="translate(-2303.084 -550.249)" fill="url(#linear-gradient)"/>
        <path id="Path_5936" data-name="Path 5936" d="M2319.795,548.308s-7.291,2.43-4.589,8.908,7.345,10.559,2.97,18.508c0,0,8.1-4.875,4.319-12.974S2316.42,552.357,2319.795,548.308Z" transform="translate(-2303.846 -548.308)" fill="url(#linear-gradient-2)"/>
        <path id="Path_5937" data-name="Path 5937" d="M2331.083,556.13s-5.346,1.783-3.366,6.535,5.388,7.746,2.178,13.576c0,0,5.941-3.576,3.17-9.515S2328.608,559.1,2331.083,556.13Z" transform="translate(-2304.683 -548.825)" fill="url(#linear-gradient-2)"/>
        <path id="Path_5938" data-name="Path 5938" d="M2310.269,556.13s-5.345,1.783-3.365,6.535,5.387,7.746,2.178,13.576c0,0,5.941-3.576,3.168-9.515S2307.795,559.1,2310.269,556.13Z" transform="translate(-2303.307 -548.825)" fill="url(#linear-gradient-2)"/>
      </g>
    </g>
  </g>
</svg>
